<svg id="Layer_1" enable-background="new 0 0 512 512" viewBox="0 0 512 512" xmlns="http://www.w3.org/2000/svg"><g id="Layer_2_00000176025697647233792630000003967105973365432499_"><g id="rupee"><path d="m412.4 123.2h-67.6c-4.7-27.3-16.9-52.8-35.4-73.4h102.8c13.7 0 24.9-11.1 24.9-24.9s-11.1-24.9-24.9-24.9h-312.6c-13.7 0-24.8 11.1-24.8 24.9 0 13.7 11.1 24.9 24.9 24.9h99.1c44.7.1 83.8 30.2 95.2 73.4h-161.2c-13.7 0-24.9 11.1-24.9 24.9 0 13.7 11.1 24.9 24.9 24.9h161.2c-11.3 43.3-50.4 73.6-95.2 73.6h-99.2c-13.7 0-24.9 11.1-24.9 24.8 0 6.3 2.4 12.3 6.7 16.9l200.4 215.7c9.2 10.2 25 10.9 35.1 1.7 10.2-9.2 10.9-25 1.7-35.1-.1-.1-.3-.3-.4-.4l-161.5-173.9h42c73.2 0 134.2-53.4 146.1-123.4h67.6c13.7 0 24.9-11.1 24.9-24.9-.1-13.7-11.2-24.8-24.9-24.8z"/></g></g></svg>